HIERARCHY
ROOT Hips
{
	OFFSET 0.000000 0.000000 0.000000 
	CHANNELS 6 Xposition Yposition Zposition Zrotation Yrotation Xrotation
	JOINT LeftUpLeg
	{
		OFFSET 1.363060 -1.794630 0.839290 
		CHANNELS 3 Zrotation Yrotation Xrotation
		JOINT LeftLeg
		{
			OFFSET 2.448110 -6.726130 0.000000 
			CHANNELS 3 Zrotation Yrotation Xrotation
			JOINT LeftFoot
			{
				OFFSET 2.562200 -7.039590 0.000000 
				CHANNELS 3 Zrotation Yrotation Xrotation
				JOINT LeftToeBase
				{
					OFFSET 0.157640 -0.433110 2.322550 
					CHANNELS 3 Zrotation Yrotation Xrotation
					End Site
					{
						OFFSET 0.000000 0.000000 0.000000 
					}
				}
			}
		}
	}
	JOINT RightUpLeg
	{
		OFFSET -1.305520 -1.794630 0.839290 
		CHANNELS 3 Zrotation Yrotation Xrotation
		JOINT RightLeg
		{
			OFFSET -2.542530 -6.985550 0.000000 
			CHANNELS 3 Zrotation Yrotation Xrotation
			JOINT RightFoot
			{
				OFFSET -2.568260 -7.056230 0.000000 
				CHANNELS 3 Zrotation Yrotation Xrotation
				JOINT RightToeBase
				{
					OFFSET -0.164730 -0.452590 2.363150 
					CHANNELS 3 Zrotation Yrotation Xrotation
					End Site
					{
						OFFSET 0.000000 0.000000 0.000000 
					}
				}
			}
		}
	}
	JOINT Spine
	{
		OFFSET 0.028270 2.035590 -0.193380 
		CHANNELS 3 Zrotation Yrotation Xrotation
		JOINT Spine1
		{
			OFFSET 0.056720 2.048850 -0.042750 
			CHANNELS 3 Zrotation Yrotation Xrotation
			JOINT Neck1
			{
				OFFSET -0.054170 1.746240 0.172020 
				CHANNELS 3 Zrotation Yrotation Xrotation
				JOINT Head
				{
					OFFSET 0.104070 1.761360 -0.123970 
					CHANNELS 3 Zrotation Yrotation Xrotation
					End Site
					{
						OFFSET 0.000000 0.000000 0.000000 
					}
				}
			}
			JOINT LeftArm
			{
				OFFSET 3.362410 1.200890 -0.311210 
				CHANNELS 3 Zrotation Yrotation Xrotation
				JOINT LeftForeArm
				{
					OFFSET 4.983000 -0.000000 -0.000000 
					CHANNELS 3 Zrotation Yrotation Xrotation
					JOINT LeftHand
					{
						OFFSET 3.483560 -0.000000 -0.000000 
						CHANNELS 3 Zrotation Yrotation Xrotation
						JOINT LeftHandIndex1
						{
							OFFSET 0.715260 -0.000000 -0.000000 
							CHANNELS 3 Zrotation Yrotation Xrotation
							End Site
							{
								OFFSET 0.000000 0.000000 0.000000 
							}
						}
					}
				}
			}
			JOINT RightArm
			{
				OFFSET -3.136600 1.374050 -0.404650 
				CHANNELS 3 Zrotation Yrotation Xrotation
				JOINT RightForeArm
				{
					OFFSET -5.241900 -0.000000 -0.000000 
					CHANNELS 3 Zrotation Yrotation Xrotation
					JOINT RightHand
					{
						OFFSET -3.444170 -0.000000 -0.000000 
						CHANNELS 3 Zrotation Yrotation Xrotation
						JOINT RightHandIndex1
						{
							OFFSET -0.622530 -0.000000 -0.000000 
							CHANNELS 3 Zrotation Yrotation Xrotation
							End Site
							{
								OFFSET 0.000000 0.000000 0.000000 
							}
						}
					}
				}
			}
		}
	}
}
MOTION
Frames: 9
Frame Time: 0.041667
3.052500 2.236500 19.877000 12.388300 -83.509100 -72.136700 18.596000 -17.810700 -77.815100 29.079100 17.896200 117.475500 -0.740700 -20.531500 22.582700 2.040900 -8.950800 -25.641500 -23.168800 11.173300 -87.321600 -32.500400 -15.738600 129.260500 0.358400 17.440600 21.178100 -0.256900 3.261200 -9.006900 0.171500 -5.221600 15.249800 6.846800 -4.626900 11.589100 -4.563800 10.920200 38.131700 -1.581700 5.105300 24.218000 -100.756400 46.594600 -25.508400 15.893000 -25.375400 -3.600000 0.000000 0.000000 -89.350700 -7.125000 0.000000 0.000000 50.363200 -52.563000 60.838200 -18.898000 29.291700 -4.980800 0.000000 0.000000 -22.646900 7.125000 0.000000 0.000000 
3.020400 2.232100 19.880400 6.615500 -84.275000 -66.111200 20.104900 -17.570000 -78.872200 29.239100 17.816100 117.997200 -0.818600 -21.048800 22.756300 2.071400 -9.013200 -25.836500 -22.128000 10.954300 -87.419800 -32.527300 -15.717300 129.359900 0.342800 17.245700 21.025000 -0.267000 3.324200 -9.182800 0.152900 -4.693000 15.110000 5.621300 -4.054200 11.309900 -3.432400 9.382400 38.138300 -1.226800 4.539300 23.532200 -97.743900 47.700700 -22.213300 15.903000 -25.388900 -3.604300 0.000000 0.000000 -89.801900 -7.125000 0.000000 0.000000 53.062400 -54.483400 58.098900 -18.935400 29.338400 -4.999200 0.000000 0.000000 -22.176400 7.125000 0.000000 0.000000 
2.994800 2.227600 19.889100 12.810300 -83.630700 -72.697900 18.836400 -17.715400 -77.933200 29.265700 17.802600 118.084300 -0.789700 -20.661100 22.305500 2.044300 -8.957800 -25.663300 -23.233300 10.836100 -87.461300 -32.605700 -15.655100 129.649800 0.416300 17.810800 21.165100 -0.271400 3.351400 -9.258500 -0.320000 -3.804400 15.086900 4.972300 -3.513900 11.077300 -2.339900 8.044500 38.426900 -0.779100 4.016700 22.404800 -94.988600 48.697600 -18.994200 15.904800 -25.391400 -3.605000 0.000000 0.000000 -90.296600 -7.125000 0.000000 0.000000 55.615300 -56.249800 55.399400 -18.995300 29.412800 -5.028500 0.000000 0.000000 -21.687900 7.125000 0.000000 0.000000 
2.968500 2.223400 19.889700 11.369300 -83.908900 -71.238200 19.370600 -17.545000 -78.251600 29.362500 17.753100 118.401400 -0.832700 -20.870900 22.251600 2.021500 -8.910700 -25.516500 -22.827000 10.761900 -87.497000 -32.652200 -15.617900 129.822100 0.495700 18.084200 20.743700 -0.366100 3.886800 -10.758300 -0.472600 -3.175600 14.882200 4.046600 -2.981400 10.728400 -1.458700 6.683900 38.204800 -0.560200 3.505900 21.727000 -92.030000 49.750100 -15.771000 15.906700 -25.393900 -3.605800 0.000000 0.000000 -90.677700 -7.125000 0.000000 0.000000 58.512900 -58.059300 52.376800 -18.992900 29.409900 -5.027400 0.000000 0.000000 -21.115400 7.125000 0.000000 0.000000 
2.941700 2.218700 19.893200 11.404000 -83.984700 -71.336000 19.531500 -17.461700 -78.331900 29.443900 17.710900 118.668600 -0.856000 -20.945300 22.144300 2.003200 -8.872700 -25.397800 -22.766100 10.650200 -87.542500 -32.705300 -15.575100 130.019600 0.562500 18.379200 20.502300 -0.431000 4.212900 -11.676400 -0.613200 -2.667600 14.669800 3.417200 -2.579300 10.389900 -0.650300 5.648600 37.986100 -0.290500 3.100000 21.140200 -89.799000 50.709400 -13.150300 15.931600 -25.427800 -3.616500 0.000000 0.000000 -91.068700 -7.125000 0.000000 0.000000 60.562700 -59.576300 50.165300 -19.062500 29.496300 -5.061600 0.000000 0.000000 -20.730300 7.125000 0.000000 0.000000 
2.915500 2.213700 19.896400 11.508300 -84.046000 -71.506400 19.668800 -17.381200 -78.391400 29.524400 17.668700 118.933700 -0.879900 -21.015200 22.019400 1.982600 -8.829800 -25.264200 -22.721500 10.547000 -87.593300 -32.758200 -15.532200 130.217100 0.632300 18.684600 20.245900 -0.505500 4.557500 -12.650600 -0.718000 -2.315800 14.472700 2.975200 -2.298700 10.105100 -0.066700 4.913200 37.766200 -0.095400 2.804800 20.647200 -88.216700 51.554900 -11.222000 15.963100 -25.470600 -3.630100 0.000000 0.000000 -91.410700 -7.125000 0.000000 0.000000 61.936800 -60.766000 48.623800 -19.142400 29.595200 -5.101000 0.000000 0.000000 -20.420400 7.125000 0.000000 0.000000 
2.889500 2.208300 19.899300 11.202300 -84.151100 -71.242200 19.898600 -17.290500 -78.526500 29.607600 17.624700 119.207900 -0.907200 -21.117800 21.924300 1.966000 -8.794800 -25.155600 -22.615000 10.444800 -87.648800 -32.808800 -15.490800 130.406300 0.695400 18.947400 19.987900 -0.580600 4.879200 -13.564300 -0.779100 -2.143200 14.320100 2.691800 -2.144500 9.912700 0.272300 4.472100 37.574600 0.007000 2.627700 20.283000 -87.340100 52.256000 -10.079100 15.998400 -25.518400 -3.645300 0.000000 0.000000 -91.701700 -7.125000 0.000000 0.000000 62.568000 -61.579000 47.833500 -19.225300 29.697700 -5.142000 0.000000 0.000000 -20.178200 7.125000 0.000000 0.000000 
2.863800 2.202300 19.902400 11.048200 -84.228300 -71.136200 20.084300 -17.211800 -78.643500 29.687900 17.581600 119.473700 -0.933100 -21.212000 21.826000 1.954100 -8.769900 -25.078100 -22.563900 10.340200 -87.712600 -32.859600 -15.449000 130.596500 0.750800 19.187800 19.779200 -0.644400 5.135200 -14.294600 -0.830300 -2.119200 14.233200 2.567500 -2.105600 9.820600 0.393100 4.290600 37.426100 0.023000 2.561700 20.052700 -87.150200 52.813300 -9.699200 16.035300 -25.568400 -3.661200 0.000000 0.000000 -91.954400 -7.125000 0.000000 0.000000 62.475100 -62.024800 47.775300 -19.308200 29.799900 -5.183100 0.000000 0.000000 -19.987700 7.125000 0.000000 0.000000 
2.838300 2.195600 19.905700 11.048700 -84.278000 -71.191300 20.226300 -17.141400 -78.743500 29.766500 17.539100 119.734200 -0.959100 -21.303500 21.721600 1.948800 -8.758600 -25.043000 -22.568600 10.234900 -87.785200 -32.910700 -15.406700 130.788700 0.798200 19.403700 19.624000 -0.693600 5.324100 -14.835300 -0.878500 -2.207100 14.199800 2.563700 -2.153700 9.803700 0.337900 4.301500 37.314000 -0.036200 2.581000 19.925800 -87.501600 53.259400 -9.919200 16.072400 -25.618700 -3.677200 0.000000 0.000000 -92.179800 -7.125000 0.000000 0.000000 61.830000 -62.182100 48.263900 -19.384900 29.894100 -5.221300 0.000000 0.000000 -19.820700 7.125000 0.000000 0.000000 
